<svg xmlns="http://www.w3.org/2000/svg" viewBox="0 0 640 480" width="640" height="480" role="img" aria-hidden="true" preserveAspectRatio="xMidYMid slice">
<rect width="640" height="480" fill="#ffffff"/>
<g><line x1="40" y1="0" x2="40" y2="480" stroke="#d9d7d0" stroke-width="1" opacity=".5"/><line x1="80" y1="0" x2="80" y2="480" stroke="#d9d7d0" stroke-width="1" opacity=".5"/><line x1="120" y1="0" x2="120" y2="480" stroke="#d9d7d0" stroke-width="1" opacity=".5"/><line x1="160" y1="0" x2="160" y2="480" stroke="#d9d7d0" stroke-width="1" opacity=".5"/><line x1="200" y1="0" x2="200" y2="480" stroke="#d9d7d0" stroke-width="1" opacity=".5"/><line x1="240" y1="0" x2="240" y2="480" stroke="#d9d7d0" stroke-width="1" opacity=".5"/><line x1="280" y1="0" x2="280" y2="480" stroke="#d9d7d0" stroke-width="1" opacity=".5"/><line x1="320" y1="0" x2="320" y2="480" stroke="#d9d7d0" stroke-width="1" opacity=".5"/><line x1="360" y1="0" x2="360" y2="480" stroke="#d9d7d0" stroke-width="1" opacity=".5"/><line x1="400" y1="0" x2="400" y2="480" stroke="#d9d7d0" stroke-width="1" opacity=".5"/><line x1="440" y1="0" x2="440" y2="480" stroke="#d9d7d0" stroke-width="1" opacity=".5"/><line x1="480" y1="0" x2="480" y2="480" stroke="#d9d7d0" stroke-width="1" opacity=".5"/><line x1="520" y1="0" x2="520" y2="480" stroke="#d9d7d0" stroke-width="1" opacity=".5"/><line x1="560" y1="0" x2="560" y2="480" stroke="#d9d7d0" stroke-width="1" opacity=".5"/><line x1="600" y1="0" x2="600" y2="480" stroke="#d9d7d0" stroke-width="1" opacity=".5"/><line x1="0" y1="40" x2="640" y2="40" stroke="#d9d7d0" stroke-width="1" opacity=".5"/><line x1="0" y1="80" x2="640" y2="80" stroke="#d9d7d0" stroke-width="1" opacity=".5"/><line x1="0" y1="120" x2="640" y2="120" stroke="#d9d7d0" stroke-width="1" opacity=".5"/><line x1="0" y1="160" x2="640" y2="160" stroke="#d9d7d0" stroke-width="1" opacity=".5"/><line x1="0" y1="200" x2="640" y2="200" stroke="#d9d7d0" stroke-width="1" opacity=".5"/><line x1="0" y1="240" x2="640" y2="240" stroke="#d9d7d0" stroke-width="1" opacity=".5"/><line x1="0" y1="280" x2="640" y2="280" stroke="#d9d7d0" stroke-width="1" opacity=".5"/><line x1="0" y1="320" x2="640" y2="320" stroke="#d9d7d0" stroke-width="1" opacity=".5"/><line x1="0" y1="360" x2="640" y2="360" stroke="#d9d7d0" stroke-width="1" opacity=".5"/><line x1="0" y1="400" x2="640" y2="400" stroke="#d9d7d0" stroke-width="1" opacity=".5"/><line x1="0" y1="440" x2="640" y2="440" stroke="#d9d7d0" stroke-width="1" opacity=".5"/></g>
<g><rect x="71.74" y="71.74" width="155.19" height="101.86" rx="2" fill="none" stroke="#14161a" stroke-width="1.5"/><rect x="244.86" y="74.19" width="150.28" height="96.95" rx="2" fill="none" stroke="#14161a" stroke-width="1.5"/><rect x="252.86" y="82.19" width="134.28" height="80.95" rx="1" fill="none" stroke="#d9d7d0" stroke-width="1"/><rect x="414.85" y="73.52" width="151.63" height="98.3" rx="2" fill="none" stroke="#14161a" stroke-width="1.5"/><rect x="76.52" y="193.85" width="145.63" height="92.3" rx="2" fill="#ff5a1f" stroke="#ff5a1f" stroke-width="1.5"/><rect x="246.82" y="193.49" width="146.35" height="93.02" rx="2" fill="none" stroke="#14161a" stroke-width="1.5"/><rect x="417.97" y="193.97" width="145.39" height="92.05" rx="2" fill="none" stroke="#14161a" stroke-width="1.5"/><rect x="425.97" y="201.97" width="129.39" height="76.05" rx="1" fill="none" stroke="#d9d7d0" stroke-width="1"/><rect x="71.76" y="306.42" width="155.15" height="101.82" rx="2" fill="none" stroke="#14161a" stroke-width="1.5"/><rect x="79.76" y="314.42" width="139.15" height="85.82" rx="1" fill="none" stroke="#d9d7d0" stroke-width="1"/><rect x="244.14" y="308.14" width="151.71" height="98.38" rx="2" fill="none" stroke="#14161a" stroke-width="1.5"/><rect x="415" y="308.34" width="151.33" height="97.99" rx="2" fill="none" stroke="#14161a" stroke-width="1.5"/><path d="M 490.67 122.67 L 490.67 181.33 L 149.33 181.33 L 149.33 240" fill="none" stroke="#d9d7d0" stroke-width="1"/><path d="M 320 240 L 320 240 L 490.67 240 L 490.67 240" fill="none" stroke="#d9d7d0" stroke-width="1"/></g>
<g><path d="M 30 14 L 14 14 L 14 30" fill="none" stroke="#14161a" stroke-width="1.5"/><path d="M 610 14 L 626 14 L 626 30" fill="none" stroke="#14161a" stroke-width="1.5"/><path d="M 30 466 L 14 466 L 14 450" fill="none" stroke="#14161a" stroke-width="1.5"/><path d="M 610 466 L 626 466 L 626 450" fill="none" stroke="#14161a" stroke-width="1.5"/></g>
<text x="20" y="460" font-family="ui-monospace, monospace" font-size="11" letter-spacing="1.4" fill="#545a63">AK-2001</text>
</svg>