<svg xmlns="http://www.w3.org/2000/svg" viewBox="0 0 640 480" width="640" height="480" role="img" aria-hidden="true" preserveAspectRatio="xMidYMid slice">
<rect width="640" height="480" fill="#ffffff"/>
<g><line x1="40" y1="0" x2="40" y2="480" stroke="#d9d7d0" stroke-width="1" opacity=".5"/><line x1="80" y1="0" x2="80" y2="480" stroke="#d9d7d0" stroke-width="1" opacity=".5"/><line x1="120" y1="0" x2="120" y2="480" stroke="#d9d7d0" stroke-width="1" opacity=".5"/><line x1="160" y1="0" x2="160" y2="480" stroke="#d9d7d0" stroke-width="1" opacity=".5"/><line x1="200" y1="0" x2="200" y2="480" stroke="#d9d7d0" stroke-width="1" opacity=".5"/><line x1="240" y1="0" x2="240" y2="480" stroke="#d9d7d0" stroke-width="1" opacity=".5"/><line x1="280" y1="0" x2="280" y2="480" stroke="#d9d7d0" stroke-width="1" opacity=".5"/><line x1="320" y1="0" x2="320" y2="480" stroke="#d9d7d0" stroke-width="1" opacity=".5"/><line x1="360" y1="0" x2="360" y2="480" stroke="#d9d7d0" stroke-width="1" opacity=".5"/><line x1="400" y1="0" x2="400" y2="480" stroke="#d9d7d0" stroke-width="1" opacity=".5"/><line x1="440" y1="0" x2="440" y2="480" stroke="#d9d7d0" stroke-width="1" opacity=".5"/><line x1="480" y1="0" x2="480" y2="480" stroke="#d9d7d0" stroke-width="1" opacity=".5"/><line x1="520" y1="0" x2="520" y2="480" stroke="#d9d7d0" stroke-width="1" opacity=".5"/><line x1="560" y1="0" x2="560" y2="480" stroke="#d9d7d0" stroke-width="1" opacity=".5"/><line x1="600" y1="0" x2="600" y2="480" stroke="#d9d7d0" stroke-width="1" opacity=".5"/><line x1="0" y1="40" x2="640" y2="40" stroke="#d9d7d0" stroke-width="1" opacity=".5"/><line x1="0" y1="80" x2="640" y2="80" stroke="#d9d7d0" stroke-width="1" opacity=".5"/><line x1="0" y1="120" x2="640" y2="120" stroke="#d9d7d0" stroke-width="1" opacity=".5"/><line x1="0" y1="160" x2="640" y2="160" stroke="#d9d7d0" stroke-width="1" opacity=".5"/><line x1="0" y1="200" x2="640" y2="200" stroke="#d9d7d0" stroke-width="1" opacity=".5"/><line x1="0" y1="240" x2="640" y2="240" stroke="#d9d7d0" stroke-width="1" opacity=".5"/><line x1="0" y1="280" x2="640" y2="280" stroke="#d9d7d0" stroke-width="1" opacity=".5"/><line x1="0" y1="320" x2="640" y2="320" stroke="#d9d7d0" stroke-width="1" opacity=".5"/><line x1="0" y1="360" x2="640" y2="360" stroke="#d9d7d0" stroke-width="1" opacity=".5"/><line x1="0" y1="400" x2="640" y2="400" stroke="#d9d7d0" stroke-width="1" opacity=".5"/><line x1="0" y1="440" x2="640" y2="440" stroke="#d9d7d0" stroke-width="1" opacity=".5"/></g>
<g><rect x="75.27" y="75.27" width="148.13" height="94.8" rx="2" fill="none" stroke="#14161a" stroke-width="1.5"/><rect x="83.27" y="83.27" width="132.13" height="78.8" rx="1" fill="none" stroke="#d9d7d0" stroke-width="1"/><rect x="243.53" y="72.86" width="152.94" height="99.61" rx="2" fill="none" stroke="#14161a" stroke-width="1.5"/><rect x="251.53" y="80.86" width="136.94" height="83.61" rx="1" fill="none" stroke="#d9d7d0" stroke-width="1"/><rect x="416.25" y="74.92" width="148.83" height="95.5" rx="2" fill="none" stroke="#14161a" stroke-width="1.5"/><rect x="73.15" y="190.48" width="152.37" height="99.03" rx="2" fill="none" stroke="#14161a" stroke-width="1.5"/><rect x="81.15" y="198.48" width="136.37" height="83.03" rx="1" fill="none" stroke="#d9d7d0" stroke-width="1"/><rect x="245.78" y="192.44" width="148.45" height="95.11" rx="2" fill="none" stroke="#14161a" stroke-width="1.5"/><rect x="253.78" y="200.44" width="132.45" height="79.11" rx="1" fill="none" stroke="#d9d7d0" stroke-width="1"/><rect x="413.35" y="189.35" width="154.63" height="101.29" rx="2" fill="#ff5a1f" stroke="#ff5a1f" stroke-width="1.5"/><rect x="78.98" y="313.65" width="140.71" height="87.37" rx="2" fill="none" stroke="#14161a" stroke-width="1.5"/><rect x="86.98" y="321.65" width="124.71" height="71.37" rx="1" fill="none" stroke="#d9d7d0" stroke-width="1"/><rect x="247.56" y="311.56" width="144.89" height="91.55" rx="2" fill="none" stroke="#14161a" stroke-width="1.5"/><rect x="415.53" y="308.86" width="150.28" height="96.94" rx="2" fill="none" stroke="#14161a" stroke-width="1.5"/><path d="M 490.67 122.67 L 490.67 181.33 L 149.33 181.33 L 149.33 240" fill="none" stroke="#d9d7d0" stroke-width="1"/></g>
<g><path d="M 30 14 L 14 14 L 14 30" fill="none" stroke="#14161a" stroke-width="1.5"/><path d="M 610 14 L 626 14 L 626 30" fill="none" stroke="#14161a" stroke-width="1.5"/><path d="M 30 466 L 14 466 L 14 450" fill="none" stroke="#14161a" stroke-width="1.5"/><path d="M 610 466 L 626 466 L 626 450" fill="none" stroke="#14161a" stroke-width="1.5"/></g>
<text x="20" y="460" font-family="ui-monospace, monospace" font-size="11" letter-spacing="1.4" fill="#545a63">AK-2004</text>
</svg>