<svg xmlns="http://www.w3.org/2000/svg" viewBox="0 0 640 480" width="640" height="480" role="img" aria-hidden="true" preserveAspectRatio="xMidYMid slice">
<rect width="640" height="480" fill="#ffffff"/>
<g><line x1="40" y1="0" x2="40" y2="480" stroke="#d9d7d0" stroke-width="1" opacity=".5"/><line x1="80" y1="0" x2="80" y2="480" stroke="#d9d7d0" stroke-width="1" opacity=".5"/><line x1="120" y1="0" x2="120" y2="480" stroke="#d9d7d0" stroke-width="1" opacity=".5"/><line x1="160" y1="0" x2="160" y2="480" stroke="#d9d7d0" stroke-width="1" opacity=".5"/><line x1="200" y1="0" x2="200" y2="480" stroke="#d9d7d0" stroke-width="1" opacity=".5"/><line x1="240" y1="0" x2="240" y2="480" stroke="#d9d7d0" stroke-width="1" opacity=".5"/><line x1="280" y1="0" x2="280" y2="480" stroke="#d9d7d0" stroke-width="1" opacity=".5"/><line x1="320" y1="0" x2="320" y2="480" stroke="#d9d7d0" stroke-width="1" opacity=".5"/><line x1="360" y1="0" x2="360" y2="480" stroke="#d9d7d0" stroke-width="1" opacity=".5"/><line x1="400" y1="0" x2="400" y2="480" stroke="#d9d7d0" stroke-width="1" opacity=".5"/><line x1="440" y1="0" x2="440" y2="480" stroke="#d9d7d0" stroke-width="1" opacity=".5"/><line x1="480" y1="0" x2="480" y2="480" stroke="#d9d7d0" stroke-width="1" opacity=".5"/><line x1="520" y1="0" x2="520" y2="480" stroke="#d9d7d0" stroke-width="1" opacity=".5"/><line x1="560" y1="0" x2="560" y2="480" stroke="#d9d7d0" stroke-width="1" opacity=".5"/><line x1="600" y1="0" x2="600" y2="480" stroke="#d9d7d0" stroke-width="1" opacity=".5"/><line x1="0" y1="40" x2="640" y2="40" stroke="#d9d7d0" stroke-width="1" opacity=".5"/><line x1="0" y1="80" x2="640" y2="80" stroke="#d9d7d0" stroke-width="1" opacity=".5"/><line x1="0" y1="120" x2="640" y2="120" stroke="#d9d7d0" stroke-width="1" opacity=".5"/><line x1="0" y1="160" x2="640" y2="160" stroke="#d9d7d0" stroke-width="1" opacity=".5"/><line x1="0" y1="200" x2="640" y2="200" stroke="#d9d7d0" stroke-width="1" opacity=".5"/><line x1="0" y1="240" x2="640" y2="240" stroke="#d9d7d0" stroke-width="1" opacity=".5"/><line x1="0" y1="280" x2="640" y2="280" stroke="#d9d7d0" stroke-width="1" opacity=".5"/><line x1="0" y1="320" x2="640" y2="320" stroke="#d9d7d0" stroke-width="1" opacity=".5"/><line x1="0" y1="360" x2="640" y2="360" stroke="#d9d7d0" stroke-width="1" opacity=".5"/><line x1="0" y1="400" x2="640" y2="400" stroke="#d9d7d0" stroke-width="1" opacity=".5"/><line x1="0" y1="440" x2="640" y2="440" stroke="#d9d7d0" stroke-width="1" opacity=".5"/></g>
<g><rect x="70.18" y="70.18" width="158.3" height="104.97" rx="2" fill="#ff5a1f" stroke="#ff5a1f" stroke-width="1.5"/><rect x="247.14" y="76.47" width="145.72" height="92.38" rx="2" fill="none" stroke="#14161a" stroke-width="1.5"/><rect x="255.14" y="84.47" width="129.72" height="76.38" rx="1" fill="none" stroke="#d9d7d0" stroke-width="1"/><rect x="420.38" y="79.04" width="140.58" height="87.25" rx="2" fill="none" stroke="#14161a" stroke-width="1.5"/><rect x="428.38" y="87.04" width="124.58" height="71.25" rx="1" fill="none" stroke="#d9d7d0" stroke-width="1"/><rect x="72.79" y="190.13" width="153.08" height="99.74" rx="2" fill="none" stroke="#14161a" stroke-width="1.5"/><rect x="243.66" y="190.33" width="152.68" height="99.35" rx="2" fill="none" stroke="#14161a" stroke-width="1.5"/><rect x="419.13" y="195.13" width="143.07" height="89.74" rx="2" fill="none" stroke="#14161a" stroke-width="1.5"/><rect x="427.13" y="203.13" width="127.07" height="73.74" rx="1" fill="none" stroke="#d9d7d0" stroke-width="1"/><rect x="75.07" y="309.74" width="148.53" height="95.19" rx="2" fill="none" stroke="#14161a" stroke-width="1.5"/><rect x="244.79" y="308.79" width="150.43" height="97.09" rx="2" fill="none" stroke="#14161a" stroke-width="1.5"/><rect x="415.26" y="308.6" width="150.81" height="97.47" rx="2" fill="none" stroke="#14161a" stroke-width="1.5"/><rect x="423.26" y="316.6" width="134.81" height="81.47" rx="1" fill="none" stroke="#d9d7d0" stroke-width="1"/><path d="M 149.33 122.67 L 149.33 122.67 L 320 122.67 L 320 122.67" fill="none" stroke="#d9d7d0" stroke-width="1"/><path d="M 149.33 240 L 149.33 240 L 320 240 L 320 240" fill="none" stroke="#d9d7d0" stroke-width="1"/><path d="M 320 357.33 L 320 357.33 L 490.67 357.33 L 490.67 357.33" fill="none" stroke="#d9d7d0" stroke-width="1"/></g>
<g><path d="M 30 14 L 14 14 L 14 30" fill="none" stroke="#14161a" stroke-width="1.5"/><path d="M 610 14 L 626 14 L 626 30" fill="none" stroke="#14161a" stroke-width="1.5"/><path d="M 30 466 L 14 466 L 14 450" fill="none" stroke="#14161a" stroke-width="1.5"/><path d="M 610 466 L 626 466 L 626 450" fill="none" stroke="#14161a" stroke-width="1.5"/></g>
<text x="20" y="460" font-family="ui-monospace, monospace" font-size="11" letter-spacing="1.4" fill="#545a63">AK-2002</text>
</svg>