<svg xmlns="http://www.w3.org/2000/svg" viewBox="0 0 640 480" width="640" height="480" role="img" aria-hidden="true" preserveAspectRatio="xMidYMid slice">
<rect width="640" height="480" fill="#ffffff"/>
<g><line x1="40" y1="0" x2="40" y2="480" stroke="#d9d7d0" stroke-width="1" opacity=".5"/><line x1="80" y1="0" x2="80" y2="480" stroke="#d9d7d0" stroke-width="1" opacity=".5"/><line x1="120" y1="0" x2="120" y2="480" stroke="#d9d7d0" stroke-width="1" opacity=".5"/><line x1="160" y1="0" x2="160" y2="480" stroke="#d9d7d0" stroke-width="1" opacity=".5"/><line x1="200" y1="0" x2="200" y2="480" stroke="#d9d7d0" stroke-width="1" opacity=".5"/><line x1="240" y1="0" x2="240" y2="480" stroke="#d9d7d0" stroke-width="1" opacity=".5"/><line x1="280" y1="0" x2="280" y2="480" stroke="#d9d7d0" stroke-width="1" opacity=".5"/><line x1="320" y1="0" x2="320" y2="480" stroke="#d9d7d0" stroke-width="1" opacity=".5"/><line x1="360" y1="0" x2="360" y2="480" stroke="#d9d7d0" stroke-width="1" opacity=".5"/><line x1="400" y1="0" x2="400" y2="480" stroke="#d9d7d0" stroke-width="1" opacity=".5"/><line x1="440" y1="0" x2="440" y2="480" stroke="#d9d7d0" stroke-width="1" opacity=".5"/><line x1="480" y1="0" x2="480" y2="480" stroke="#d9d7d0" stroke-width="1" opacity=".5"/><line x1="520" y1="0" x2="520" y2="480" stroke="#d9d7d0" stroke-width="1" opacity=".5"/><line x1="560" y1="0" x2="560" y2="480" stroke="#d9d7d0" stroke-width="1" opacity=".5"/><line x1="600" y1="0" x2="600" y2="480" stroke="#d9d7d0" stroke-width="1" opacity=".5"/><line x1="0" y1="40" x2="640" y2="40" stroke="#d9d7d0" stroke-width="1" opacity=".5"/><line x1="0" y1="80" x2="640" y2="80" stroke="#d9d7d0" stroke-width="1" opacity=".5"/><line x1="0" y1="120" x2="640" y2="120" stroke="#d9d7d0" stroke-width="1" opacity=".5"/><line x1="0" y1="160" x2="640" y2="160" stroke="#d9d7d0" stroke-width="1" opacity=".5"/><line x1="0" y1="200" x2="640" y2="200" stroke="#d9d7d0" stroke-width="1" opacity=".5"/><line x1="0" y1="240" x2="640" y2="240" stroke="#d9d7d0" stroke-width="1" opacity=".5"/><line x1="0" y1="280" x2="640" y2="280" stroke="#d9d7d0" stroke-width="1" opacity=".5"/><line x1="0" y1="320" x2="640" y2="320" stroke="#d9d7d0" stroke-width="1" opacity=".5"/><line x1="0" y1="360" x2="640" y2="360" stroke="#d9d7d0" stroke-width="1" opacity=".5"/><line x1="0" y1="400" x2="640" y2="400" stroke="#d9d7d0" stroke-width="1" opacity=".5"/><line x1="0" y1="440" x2="640" y2="440" stroke="#d9d7d0" stroke-width="1" opacity=".5"/></g>
<g><circle cx="217.6" cy="240" r="172.8" fill="none" stroke="#14161a" stroke-width="1.5"/><circle cx="217.6" cy="240" r="148.11" fill="none" stroke="#d9d7d0" stroke-width="1"/><circle cx="217.6" cy="240" r="123.43" fill="none" stroke="#d9d7d0" stroke-width="1"/><circle cx="217.6" cy="240" r="98.74" fill="none" stroke="#d9d7d0" stroke-width="1"/><circle cx="217.6" cy="240" r="74.06" fill="none" stroke="#d9d7d0" stroke-width="1"/><circle cx="217.6" cy="240" r="49.37" fill="none" stroke="#d9d7d0" stroke-width="1"/><circle cx="217.6" cy="240" r="24.69" fill="none" stroke="#d9d7d0" stroke-width="1"/><circle cx="217.6" cy="240" r="27.65" fill="#ff5a1f"/><circle cx="75.9" cy="98.3" r="3.5" fill="none" stroke="#14161a" stroke-width="1.5"/><circle cx="359.3" cy="98.3" r="3.5" fill="none" stroke="#14161a" stroke-width="1.5"/><circle cx="75.9" cy="381.7" r="3.5" fill="none" stroke="#14161a" stroke-width="1.5"/><circle cx="359.3" cy="381.7" r="3.5" fill="none" stroke="#14161a" stroke-width="1.5"/><rect x="409.6" y="144.08" width="12" height="191.85" fill="none" stroke="#14161a" stroke-width="1.5"/><rect x="429.6" y="193.36" width="12" height="93.29" fill="#ff5a1f" stroke="#ff5a1f" stroke-width="1.5"/><rect x="449.6" y="203.9" width="12" height="72.2" fill="none" stroke="#14161a" stroke-width="1.5"/><rect x="469.6" y="161.69" width="12" height="156.63" fill="none" stroke="#14161a" stroke-width="1.5"/><rect x="489.6" y="146.16" width="12" height="187.68" fill="none" stroke="#14161a" stroke-width="1.5"/><rect x="509.6" y="189.37" width="12" height="101.26" fill="#ff5a1f" stroke="#ff5a1f" stroke-width="1.5"/><rect x="529.6" y="181.88" width="12" height="116.24" fill="none" stroke="#14161a" stroke-width="1.5"/><rect x="549.6" y="149.87" width="12" height="180.25" fill="none" stroke="#14161a" stroke-width="1.5"/><rect x="569.6" y="193.67" width="12" height="92.65" fill="none" stroke="#14161a" stroke-width="1.5"/><line x1="391.6" y1="240" x2="596" y2="240" stroke="#d9d7d0" stroke-width="1"/></g>
<g><path d="M 30 14 L 14 14 L 14 30" fill="none" stroke="#14161a" stroke-width="1.5"/><path d="M 610 14 L 626 14 L 626 30" fill="none" stroke="#14161a" stroke-width="1.5"/><path d="M 30 466 L 14 466 L 14 450" fill="none" stroke="#14161a" stroke-width="1.5"/><path d="M 610 466 L 626 466 L 626 450" fill="none" stroke="#14161a" stroke-width="1.5"/></g>
<text x="20" y="460" font-family="ui-monospace, monospace" font-size="11" letter-spacing="1.4" fill="#545a63">AU-4002</text>
</svg>