<svg xmlns="http://www.w3.org/2000/svg" viewBox="0 0 640 480" width="640" height="480" role="img" aria-hidden="true" preserveAspectRatio="xMidYMid slice">
<rect width="640" height="480" fill="#ffffff"/>
<g><line x1="40" y1="0" x2="40" y2="480" stroke="#d9d7d0" stroke-width="1" opacity=".5"/><line x1="80" y1="0" x2="80" y2="480" stroke="#d9d7d0" stroke-width="1" opacity=".5"/><line x1="120" y1="0" x2="120" y2="480" stroke="#d9d7d0" stroke-width="1" opacity=".5"/><line x1="160" y1="0" x2="160" y2="480" stroke="#d9d7d0" stroke-width="1" opacity=".5"/><line x1="200" y1="0" x2="200" y2="480" stroke="#d9d7d0" stroke-width="1" opacity=".5"/><line x1="240" y1="0" x2="240" y2="480" stroke="#d9d7d0" stroke-width="1" opacity=".5"/><line x1="280" y1="0" x2="280" y2="480" stroke="#d9d7d0" stroke-width="1" opacity=".5"/><line x1="320" y1="0" x2="320" y2="480" stroke="#d9d7d0" stroke-width="1" opacity=".5"/><line x1="360" y1="0" x2="360" y2="480" stroke="#d9d7d0" stroke-width="1" opacity=".5"/><line x1="400" y1="0" x2="400" y2="480" stroke="#d9d7d0" stroke-width="1" opacity=".5"/><line x1="440" y1="0" x2="440" y2="480" stroke="#d9d7d0" stroke-width="1" opacity=".5"/><line x1="480" y1="0" x2="480" y2="480" stroke="#d9d7d0" stroke-width="1" opacity=".5"/><line x1="520" y1="0" x2="520" y2="480" stroke="#d9d7d0" stroke-width="1" opacity=".5"/><line x1="560" y1="0" x2="560" y2="480" stroke="#d9d7d0" stroke-width="1" opacity=".5"/><line x1="600" y1="0" x2="600" y2="480" stroke="#d9d7d0" stroke-width="1" opacity=".5"/><line x1="0" y1="40" x2="640" y2="40" stroke="#d9d7d0" stroke-width="1" opacity=".5"/><line x1="0" y1="80" x2="640" y2="80" stroke="#d9d7d0" stroke-width="1" opacity=".5"/><line x1="0" y1="120" x2="640" y2="120" stroke="#d9d7d0" stroke-width="1" opacity=".5"/><line x1="0" y1="160" x2="640" y2="160" stroke="#d9d7d0" stroke-width="1" opacity=".5"/><line x1="0" y1="200" x2="640" y2="200" stroke="#d9d7d0" stroke-width="1" opacity=".5"/><line x1="0" y1="240" x2="640" y2="240" stroke="#d9d7d0" stroke-width="1" opacity=".5"/><line x1="0" y1="280" x2="640" y2="280" stroke="#d9d7d0" stroke-width="1" opacity=".5"/><line x1="0" y1="320" x2="640" y2="320" stroke="#d9d7d0" stroke-width="1" opacity=".5"/><line x1="0" y1="360" x2="640" y2="360" stroke="#d9d7d0" stroke-width="1" opacity=".5"/><line x1="0" y1="400" x2="640" y2="400" stroke="#d9d7d0" stroke-width="1" opacity=".5"/><line x1="0" y1="440" x2="640" y2="440" stroke="#d9d7d0" stroke-width="1" opacity=".5"/></g>
<g><line x1="102.4" y1="403.2" x2="-44.78" y2="166.66" stroke="#d9d7d0" stroke-width="1"/><line x1="102.4" y1="403.2" x2="-51.97" y2="105.11" stroke="#d9d7d0" stroke-width="1"/><line x1="102.4" y1="403.2" x2="-46.7" y2="49.6" stroke="#d9d7d0" stroke-width="1"/><line x1="102.4" y1="403.2" x2="-27.95" y2="10.19" stroke="#d9d7d0" stroke-width="1"/><line x1="102.4" y1="403.2" x2="29.75" y2="108.2" stroke="#d9d7d0" stroke-width="1"/><line x1="102.4" y1="403.2" x2="49.67" y2="81.96" stroke="#d9d7d0" stroke-width="1"/><line x1="102.4" y1="403.2" x2="70.33" y2="21.82" stroke="#d9d7d0" stroke-width="1"/><line x1="102.4" y1="403.2" x2="100.45" y2="21.75" stroke="#d9d7d0" stroke-width="1"/><line x1="102.4" y1="403.2" x2="131.3" y2="11.56" stroke="#d9d7d0" stroke-width="1"/><line x1="102.4" y1="403.2" x2="167.41" y2="-19.93" stroke="#d9d7d0" stroke-width="1"/><line x1="102.4" y1="403.2" x2="175.59" y2="92.34" stroke="#d9d7d0" stroke-width="1"/><line x1="102.4" y1="403.2" x2="196.64" y2="109.03" stroke="#d9d7d0" stroke-width="1"/><line x1="102.4" y1="403.2" x2="267.67" y2="-0.23" stroke="#d9d7d0" stroke-width="1"/><path d="M 63.52 340.71 A 73.6 73.6 0 0 1 130.3 335.09" fill="none" stroke="#14161a" stroke-width="1.5"/><path d="M 24.63 278.22 A 147.2 147.2 0 0 1 158.2 266.99" fill="none" stroke="#14161a" stroke-width="1.5"/><path d="M -14.25 215.73 A 220.8 220.8 0 0 1 186.1 198.88" fill="none" stroke="#14161a" stroke-width="1.5"/><path d="M -53.14 153.24 A 294.4 294.4 0 0 1 214 130.77" fill="none" stroke="#ff5a1f" stroke-width="3"/><path d="M -92.02 90.75 A 368 368 0 0 1 241.91 62.67" fill="none" stroke="#14161a" stroke-width="1.5"/><circle cx="102.4" cy="403.2" r="6" fill="#14161a"/><rect x="484" y="127.78" width="34" height="34" fill="#ff5a1f"/></g>
<g><path d="M 30 14 L 14 14 L 14 30" fill="none" stroke="#14161a" stroke-width="1.5"/><path d="M 610 14 L 626 14 L 626 30" fill="none" stroke="#14161a" stroke-width="1.5"/><path d="M 30 466 L 14 466 L 14 450" fill="none" stroke="#14161a" stroke-width="1.5"/><path d="M 610 466 L 626 466 L 626 450" fill="none" stroke="#14161a" stroke-width="1.5"/></g>
<text x="20" y="460" font-family="ui-monospace, monospace" font-size="11" letter-spacing="1.4" fill="#545a63">PR-5003</text>
</svg>