<svg xmlns="http://www.w3.org/2000/svg" viewBox="0 0 640 480" width="640" height="480" role="img" aria-hidden="true" preserveAspectRatio="xMidYMid slice">
<rect width="640" height="480" fill="#ffffff"/>
<g><line x1="40" y1="0" x2="40" y2="480" stroke="#d9d7d0" stroke-width="1" opacity=".5"/><line x1="80" y1="0" x2="80" y2="480" stroke="#d9d7d0" stroke-width="1" opacity=".5"/><line x1="120" y1="0" x2="120" y2="480" stroke="#d9d7d0" stroke-width="1" opacity=".5"/><line x1="160" y1="0" x2="160" y2="480" stroke="#d9d7d0" stroke-width="1" opacity=".5"/><line x1="200" y1="0" x2="200" y2="480" stroke="#d9d7d0" stroke-width="1" opacity=".5"/><line x1="240" y1="0" x2="240" y2="480" stroke="#d9d7d0" stroke-width="1" opacity=".5"/><line x1="280" y1="0" x2="280" y2="480" stroke="#d9d7d0" stroke-width="1" opacity=".5"/><line x1="320" y1="0" x2="320" y2="480" stroke="#d9d7d0" stroke-width="1" opacity=".5"/><line x1="360" y1="0" x2="360" y2="480" stroke="#d9d7d0" stroke-width="1" opacity=".5"/><line x1="400" y1="0" x2="400" y2="480" stroke="#d9d7d0" stroke-width="1" opacity=".5"/><line x1="440" y1="0" x2="440" y2="480" stroke="#d9d7d0" stroke-width="1" opacity=".5"/><line x1="480" y1="0" x2="480" y2="480" stroke="#d9d7d0" stroke-width="1" opacity=".5"/><line x1="520" y1="0" x2="520" y2="480" stroke="#d9d7d0" stroke-width="1" opacity=".5"/><line x1="560" y1="0" x2="560" y2="480" stroke="#d9d7d0" stroke-width="1" opacity=".5"/><line x1="600" y1="0" x2="600" y2="480" stroke="#d9d7d0" stroke-width="1" opacity=".5"/><line x1="0" y1="40" x2="640" y2="40" stroke="#d9d7d0" stroke-width="1" opacity=".5"/><line x1="0" y1="80" x2="640" y2="80" stroke="#d9d7d0" stroke-width="1" opacity=".5"/><line x1="0" y1="120" x2="640" y2="120" stroke="#d9d7d0" stroke-width="1" opacity=".5"/><line x1="0" y1="160" x2="640" y2="160" stroke="#d9d7d0" stroke-width="1" opacity=".5"/><line x1="0" y1="200" x2="640" y2="200" stroke="#d9d7d0" stroke-width="1" opacity=".5"/><line x1="0" y1="240" x2="640" y2="240" stroke="#d9d7d0" stroke-width="1" opacity=".5"/><line x1="0" y1="280" x2="640" y2="280" stroke="#d9d7d0" stroke-width="1" opacity=".5"/><line x1="0" y1="320" x2="640" y2="320" stroke="#d9d7d0" stroke-width="1" opacity=".5"/><line x1="0" y1="360" x2="640" y2="360" stroke="#d9d7d0" stroke-width="1" opacity=".5"/><line x1="0" y1="400" x2="640" y2="400" stroke="#d9d7d0" stroke-width="1" opacity=".5"/><line x1="0" y1="440" x2="640" y2="440" stroke="#d9d7d0" stroke-width="1" opacity=".5"/></g>
<g><circle cx="320" cy="240" r="177.07" fill="none" stroke="#14161a" stroke-width="1.5"/><circle cx="320" cy="240" r="131.03" fill="none" stroke="#d9d7d0" stroke-width="1"/><circle cx="320" cy="240" r="70.83" fill="none" stroke="#14161a" stroke-width="1.5"/><circle cx="320" cy="240" r="21.25" fill="#14161a"/><line x1="401.45" y1="240" x2="443.95" y2="240" stroke="#d9d7d0" stroke-width="2"/><line x1="395.95" y1="269.42" x2="435.58" y2="284.78" stroke="#d9d7d0" stroke-width="2"/><line x1="380.2" y1="294.88" x2="411.6" y2="323.51" stroke="#d9d7d0" stroke-width="2"/><line x1="356.31" y1="312.91" x2="375.25" y2="350.96" stroke="#d9d7d0" stroke-width="2"/><line x1="327.52" y1="321.11" x2="331.44" y2="363.42" stroke="#d9d7d0" stroke-width="2"/><line x1="297.71" y1="318.34" x2="286.08" y2="359.22" stroke="#d9d7d0" stroke-width="2"/><line x1="270.91" y1="305" x2="245.3" y2="338.92" stroke="#d9d7d0" stroke-width="2"/><line x1="250.75" y1="282.88" x2="214.61" y2="305.25" stroke="#d9d7d0" stroke-width="2"/><line x1="239.93" y1="254.97" x2="198.16" y2="262.78" stroke="#d9d7d0" stroke-width="2"/><line x1="239.93" y1="225.03" x2="198.16" y2="217.22" stroke="#d9d7d0" stroke-width="2"/><line x1="250.75" y1="197.12" x2="214.61" y2="174.75" stroke="#d9d7d0" stroke-width="2"/><line x1="270.91" y1="175" x2="245.3" y2="141.08" stroke="#d9d7d0" stroke-width="2"/><line x1="297.71" y1="161.66" x2="286.08" y2="120.78" stroke="#d9d7d0" stroke-width="2"/><line x1="327.52" y1="158.89" x2="331.44" y2="116.58" stroke="#d9d7d0" stroke-width="2"/><line x1="356.31" y1="167.09" x2="375.25" y2="129.04" stroke="#d9d7d0" stroke-width="2"/><line x1="380.2" y1="185.12" x2="411.6" y2="156.49" stroke="#d9d7d0" stroke-width="2"/><line x1="395.95" y1="210.58" x2="435.58" y2="195.22" stroke="#d9d7d0" stroke-width="2"/><circle cx="362.13" cy="221.43" r="4.5" fill="none" stroke="#14161a" stroke-width="1.5"/><circle cx="338.57" cy="282.13" r="4.5" fill="none" stroke="#14161a" stroke-width="1.5"/><circle cx="277.87" cy="258.57" r="4.5" fill="none" stroke="#14161a" stroke-width="1.5"/><circle cx="301.43" cy="197.87" r="4.5" fill="none" stroke="#14161a" stroke-width="1.5"/><path d="M 457.59 102.13 A 194.78 194.78 0 0 1 512.09 207.73 L 470.18 214.77 A 152.28 152.28 0 0 0 427.57 132.21 Z" fill="#ff5a1f"/><line x1="142.93" y1="445.07" x2="497.07" y2="445.07" stroke="#545a63" stroke-width="1"/><line x1="142.93" y1="439.07" x2="142.93" y2="451.07" stroke="#545a63" stroke-width="1"/><line x1="497.07" y1="439.07" x2="497.07" y2="451.07" stroke="#545a63" stroke-width="1"/></g>
<g><path d="M 30 14 L 14 14 L 14 30" fill="none" stroke="#14161a" stroke-width="1.5"/><path d="M 610 14 L 626 14 L 626 30" fill="none" stroke="#14161a" stroke-width="1.5"/><path d="M 30 466 L 14 466 L 14 450" fill="none" stroke="#14161a" stroke-width="1.5"/><path d="M 610 466 L 626 466 L 626 450" fill="none" stroke="#14161a" stroke-width="1.5"/></g>
<text x="20" y="460" font-family="ui-monospace, monospace" font-size="11" letter-spacing="1.4" fill="#545a63">SP-1002</text>
</svg>